<?xml version="1.0" encoding="utf-8"?>
<!-- Generator: Adobe Illustrator 16.0.0, SVG Export Plug-In . SVG Version: 6.00 Build 0)  -->
<!DOCTYPE svg PUBLIC "-//W3C//DTD SVG 1.1//EN" "http://www.w3.org/Graphics/SVG/1.1/DTD/svg11.dtd">
<svg version="1.1" id="Layer_1" xmlns="http://www.w3.org/2000/svg" xmlns:xlink="http://www.w3.org/1999/xlink" x="0px" y="0px"
	 width="543.787px" height="264.943px" viewBox="0 -2.057 543.787 264.943" enable-background="new 0 -2.057 543.787 264.943"
	 xml:space="preserve">
<g id="Layer_2_1_">
</g>
<g id="Layer_2">
</g>
<path fill="#FFFFFF" d="M8.881,95.351c17.979,0.512,35.959,1.268,53.909,2.422c13.517,0.87,21.069,9.541,25.523,21.437
	c4.272,11.417,2.273,21.582-6.604,30.187c-0.476,0.461-0.922,0.965-1.313,1.498c-0.183,0.244-0.196,0.607-0.356,1.155
	c2.469,2.265,5.219,4.42,7.53,6.974c8.225,9.086,11.021,19.666,7.463,31.479c-3.297,10.951-11.222,17.391-22.22,19.093
	c-7.342,1.14-14.955,0.666-22.446,0.679c-9.83,0.014-19.661-0.16-29.49-0.349c-7.835-0.146-10.35-2.625-10.982-10.438
	C7.543,170.6,5.19,141.713,2.798,112.83C2.692,111.539,0,95.351,8.881,95.351z M42.717,144.962c0,0.038,0,0.075,0,0.112
	c4.159,0,8.326,0.174,12.476-0.038c7.497-0.384,13.396-6.443,13.764-13.854c0.396-8.057-4.934-15.418-12.551-16.063
	c-9.265-0.784-18.6-0.756-27.906-1.031c-3.426-0.102-4.762,1.761-4.51,5.052c0.532,6.959,1.146,13.917,1.477,20.885
	c0.188,3.947,2.163,5.127,5.777,4.975C35.06,144.837,38.891,144.962,42.717,144.962z M49.066,192.313c0,0.078,0,0.156-0.001,0.235
	c3.993,0,7.983-0.014,11.979,0.003c5.314,0.022,9.979-1.361,12.514-6.496c2.654-5.381,1.188-10.457-2.063-14.996
	c-3.283-4.586-8.021-6.957-13.661-7.107c-8.314-0.227-16.641-0.188-24.96-0.369c-4.023-0.087-5.25,1.882-4.847,5.615
	c0.661,6.113,1.364,12.238,1.644,18.379c0.175,3.831,2.09,4.813,5.416,4.758C39.744,192.253,44.406,192.313,49.066,192.313z"/>
<path fill="#FFFFFF" d="M543.893,216c-11.567,5.238-18.236,3.173-25.381-7.438c-3.984-5.918-8.383-11.558-12.979-17.845
	c-4.644,7.581-8.882,14.658-13.276,21.638c-3.709,5.884-9.164,7.813-14.939,5.533c-5.426-2.144-7.188-6.6-4.172-11.625
	c5.477-9.136,11.086-18.193,16.895-27.119c2.262-3.472,2.192-6.166-0.373-9.434c-6.579-8.379-12.979-16.902-19.271-25.504
	c-2.54-3.473-5.271-7.271-2.727-11.854c1.562-2.813,8.781-3.702,13.556-1.389c2.712,1.315,5.25,3.523,7.136,5.908
	c5.438,6.874,10.502,14.043,16.167,21.71c4.356-7.278,8.209-13.863,12.207-20.356c4.011-6.515,9.135-8.483,16.123-6.428
	c5.504,1.622,6.981,4.725,4.048,9.77c-4.851,8.342-9.768,16.672-15.187,24.646c-3.766,5.537-3.58,10.054,0.435,15.366
	c7.511,9.939,14.523,20.258,21.743,30.419C543.893,213.333,543.893,214.667,543.893,216z"/>
<path fill="#FFFFFF" d="M270.893-0.001c0.332,0.143,11.634,4.996,12.213,5.241s-0.047,1.477-0.18,1.744
	c-4.339,8.762-4.341,8.754-13.467,5.364c-7.59-2.82-15.186-5.624-23.755-8.796c4.341-1.379,10.251-3.186,11.188-3.553
	C262.395-2.179,270.441-0.151,270.893-0.001z"/>
<path fill="#FFFFFF" d="M352.446,104.167c-4.121,5.695-9.604,4.866-15.146,4.767c-5.668-0.102-8.872,3.682-8.535,9.361
	c0.273,4.644,0.938,9.262,1.324,13.898c0.24,2.934,1.719,3.953,4.601,3.884c2.459-0.06,5.029,0.093,7.378,0.758
	c4.698,1.331,7.173,5.062,6.646,9.271c-0.506,4.028-4.104,7.313-8.561,7.81c-7.599,0.844-7.746,0.854-7.205,8.599
	c0.94,13.452,2.148,26.887,3.113,40.338c0.52,7.241-1.032,9.504-6.425,10.159c-7.909,0.968-12.369-1.567-13.131-8.534
	c-1.771-16.216-3.107-32.478-4.529-48.728c-0.929-10.614-1.63-21.249-2.551-31.864c-1.775-20.452,8.937-32.906,29.3-34.02
	c6.817-0.373,13.633-0.802,20.438-1.348c8.563-0.687,12.34,1.935,13.113,10.404c2.035,22.215,3.757,44.459,5.59,66.688
	c1.08,13.107,2.124,26.221,3.204,39.326c0.357,4.334,0.608,8.543-5.126,9.664c-6.331,1.239-12.57-1.471-13.887-6.798
	c-1.146-4.646-1.49-9.52-1.891-14.315c-2.146-25.717-4.181-51.44-6.305-77.158C353.529,112.262,352.927,108.22,352.446,104.167z"/>
<path fill="#FFFFFF" d="M173.177,130.627c-19.091-0.279-37.172,13.167-40.411,30.055c-5.771,30.038,22.028,58.024,52.483,52.84
	c17.099-2.91,29.853-14.071,32.799-28.709C223.67,156.927,202.241,131.052,173.177,130.627z M198.236,175.048
	c-0.179,12.067-8.698,20.097-21.24,20.022c-13.874-0.081-24.228-11.077-24.093-25.586c0-0.002,0-0.002,0-0.002
	c0.039-4.19,1.296-8.002,3.443-11.15c0.048-0.071,0.088-0.148,0.138-0.219c0.094-0.135,0.204-0.256,0.3-0.387
	c3.76-5.086,9.928-8.283,17.106-8.213c1.295,0.012,2.563,0.121,3.798,0.322c11.935,1.948,20.737,12.398,20.548,25.208
	C198.236,175.047,198.236,175.047,198.236,175.048z"/>
<path fill="#FFFFFF" d="M126.726,202.086c0.271,5.587-2.243,8.666-7.737,9.688c-5.812,1.08-10.728-1.045-12.073-6.072
	c-1.146-4.285-1.39-8.848-1.729-13.309c-2.413-31.72-4.77-63.439-7.098-95.167c-0.563-7.688,2.053-10.92,9.035-11.505
	c7.686-0.643,11.557,2.156,12.127,9.727c1.696,22.42,3.087,44.862,4.639,67.294C124.797,175.857,125.778,188.973,126.726,202.086z"
	/>
<path fill="#FFFFFF" d="M247.674,52.077c3.362-0.582,6.169-1.261,9.017-1.495c2.025-0.168,4.541-0.438,6.092,0.531
	c13.282,8.295,27.682,12.618,44.574,12.822c-3.755,4.404-6.692,8.314-10.174,11.658c-1.094,1.048-3.854,1.21-5.503,0.683
	c-10.1-3.23-20.176-6.563-30.098-10.289C254.895,63.477,250.73,58.099,247.674,52.077z"/>
<path fill="#FFFFFF" d="M285.478,51.62c-0.961-2.201-2.188-4.328-2.837-6.617c-2.72-9.548-8.646-15.458-18.557-17.313
	c-7.024-1.316-13.941-3.521-21.018-4.188c-6.088-0.575-12.33,0.463-18.411,0.783c0.166-7.932,9.074-15.667,17.709-12.997
	c10.583,3.273,21.249,6.762,31.142,11.648C283.815,28.025,288.633,40.229,285.478,51.62z"/>
<path fill="#FFFFFF" d="M251.622,69.125c11.886,4.808,22.729,9.192,33.835,13.687c-6.704,5.516-22.437,7.006-29.222,2.995
	c-0.881-0.521-1.752-1.629-1.968-2.61C253.315,78.866,252.603,74.482,251.622,69.125z"/>
<path fill="#FFFFFF" d="M246.701,49.901c-2.988-5.117-1.795-9.009,1.417-12.48c4.137-4.473,9.242-5.636,14.992-3.825
	c6.479,2.042,10.068,7.236,14.268,13.49C266.342,44.223,255.662,37.701,246.701,49.901z"/>
<path fill="#FFFFFF" d="M285.672,20.495c3.21-2.681,6.239-5.21,10.294-8.596c3.066,4.712,6.271,8.86,8.596,13.452
	c1.798,3.55-2.813,10.363-6.729,10.543c-0.86,0.039-2.041-0.895-2.626-1.705C292.003,29.76,288.944,25.229,285.672,20.495z"/>
<path fill="#FFFFFF" d="M223.954,61.182c3.25-2.643,6.295-5.12,10.089-8.205c3.188,7.424,8.668,13.286,8.397,21.573
	c-0.038,1.165-0.773,3.12-1.422,3.477s-2.64-1.042-3.572-1.77C236.869,75.636,228.623,66.438,223.954,61.182z"/>
<path fill="#FFFFFF" d="M235.51,32.017c2.742,11.326-6.919,13.407-12.646,18.52C218.259,40.039,223.359,32.646,235.51,32.017z"/>
<path fill="#FFFFFF" d="M308.704,39.019c3.261,8.678,0.262,14.691-7.806,15.976c-1.774,0.282-4.999-0.184-5.395-1.168
	c-1.108-2.791-1.852-6.237,1.729-8.321C300.93,43.352,304.679,41.289,308.704,39.019z"/>
<path fill="#FFFFFF" d="M306.746,226.307c-0.854-8.774-1.12-17.607-1.955-26.39c-1.797-18.885-3.521-37.783-5.813-56.61
	c-1.174-9.646-9.021-13.371-18.104-10.195c-3.689,1.289-8.158,1.766-11.977,1.047c-14.939-2.81-29.017,1.896-36.976,13.873
	c-8.491,12.781-9.824,26.818-4.303,41.023c8.965,23.057,31.622,33.066,58.002,25.328c0.389,6.43,1.217,12.363,0.961,18.249
	c-0.253,5.812-4.455,9.558-10.342,10.462c-7.186,1.104-13.587-0.382-18.632-5.979c-4.066-4.512-9.3-5.633-15.009-4.992
	c-4.546,0.51-6.248,3.243-5.217,7.693c1.25,5.396,4,9.735,8.47,13.115c8.46,6.391,18.089,9.002,28.498,9.047
	C295.765,262.068,308.814,247.548,306.746,226.307z M269.999,199.218c-1.322-0.03-2.717-0.175-4.178-0.437
	c-4.664-0.834-8.799-3.13-12.143-6.314c-4.742-4.517-7.887-10.827-8.636-17.358c-0.5-4.357,0.063-8.809,1.922-12.882
	c3.254-7.126,8.48-10.503,16.396-10.503c1.131,0,2.317,0.069,3.56,0.206c0.234,0.025,0.458,0.065,0.687,0.097
	c4.882,0.669,8.655,2.645,11.176,5.991c1.585,2.103,2.68,4.741,3.254,7.929c1.06,5.864,1.458,11.848,2.152,17.778
	C284.892,194.047,279.25,199.433,269.999,199.218z"/>
<path fill="#FFFFFF" d="M444.998,192.008c-3.493,0.574-7.425,1.297-10.129,3.325c-5.652,4.243-11.004,3.937-16.767,0.948
	c-5.997-3.108-9.928-7.637-10.249-15.354c14.768,0,28.908,0.041,43.048-0.012c12.293-0.046,12.98-0.75,10.926-12.964
	c-2.958-17.588-12.479-29.922-29.838-35.272c-17.408-5.368-34.76,2.011-42.227,17.556c-9.977,20.77-1.418,48.854,18.42,60.468
	c17.41,10.19,39.416,5.938,50.323-9.938c2.046-2.977,3.217-6.555,5.224-10.762C456.519,190.738,450.712,191.07,444.998,192.008z
	 M420.694,149.329c7.562-1.06,16.311,4.337,17.996,11.11c0.705,2.832-0.12,4.539-3.337,4.535
	c-9.435-0.019-18.869-0.009-28.296-0.009C406.989,156.168,412.011,150.545,420.694,149.329z"/>
<path fill="none" d="M169.393-120.057"/>
<path fill="none" d="M87.393-181.057"/>
</svg>
